# xmcd CD database file
#
# Track frame offsets:
#	150
#	16712
#	32377
#	50545
#	68147
#	86125
#	107027
#	125547
#	145622
#	163225
#	181825
#	201955
#	220220
#
# Disc length: 3162 seconds
#
# Revision: 4
# Processed by: cddbd v1.5PL3 Copyright (c) Steve Scherf et al.
# Submitted via: CDex 1.51
#
DISCID=b00c580d
DTITLE=Stephen Gately - New Beginning
DYEAR=2000
DGENRE=Pop
TTITLE0=New Beginning
TTITLE1=I Believe
TTITLE2=If Only You Were Here
TTITLE3=Stay
TTITLE4=Wanna Be Where You Are
TTITLE5=Where Do We Go
TTITLE6=Judgement Day
TTITLE7=You Lied
TTITLE8=Far From Love
TTITLE9=Just Can't Say Goodbye
TTITLE10=Do Without Me
TTITLE11=Coming Back
TTITLE12=Bright Eyes
EXTD=YEAR: 2000
EXTT0=
EXTT1=
EXTT2=
EXTT3=
EXTT4=
EXTT5=
EXTT6=
EXTT7=
EXTT8=
EXTT9=
EXTT10=
EXTT11=
EXTT12=
PLAYORDER=
